<svg id="Layer_1" enable-background="new 0 0 124 124" height="512" viewBox="0 0 124 124" width="512" svg="http://www.w3.org/2000/svg"><path d="m0 114.09c0 1.607 1.296 2.91 2.894 2.91h101.322c1.599 0 2.894-1.303 2.894-2.91v-70.682h-107.11z" fill="#e6e6e6"/><path d="m104.216 23.974h-101.322c-1.598 0-2.894 1.303-2.894 2.91v16.525h107.111v-16.525c0-1.607-1.296-2.91-2.895-2.91z" fill="#cdcdcd"/><path d="m16.889 97.116c0 1.607 1.296 2.91 2.894 2.91h101.322c1.599 0 2.894-1.303 2.894-2.91v-70.681h-107.11z" fill="#5ab8ec"/><path d="m121.106 7h-101.322c-1.599 0-2.894 1.303-2.894 2.91v16.525h107.11v-16.525c0-1.607-1.296-2.91-2.894-2.91z" fill="#30ade0"/><g fill="#fff"><path d="m36.556 18.303h-7.733c-1.104 0-2-.896-2-2s.896-2 2-2h7.733c1.104 0 2 .896 2 2s-.896 2-2 2z"/><path d="m54.166 18.303h-7.734c-1.104 0-2-.896-2-2s.896-2 2-2h7.734c1.104 0 2 .896 2 2s-.896 2-2 2z"/><path d="m38.463 63.477 19.736 10.22v-3.977l-15.192-7.657 15.192-7.656v-3.977l-19.736 10.22z"/><path d="m62.574 74.983h3.816l11.684-30.416h-3.858z"/><path d="m82.363 50.431v3.977l15.307 7.655-15.307 7.656v3.976l19.736-10.178v-2.908z"/></g></svg>
