<svg viewBox="0 0 24 24" xmlns="http://www.w3.org/2000/svg" xmlns:xlink="http://www.w3.org/1999/xlink"><linearGradient id="a" gradientUnits="userSpaceOnUse" x1="1.241" x2="21.501" y1="6.518" y2="15.965"><stop offset="0" stop-color="#fff" stop-opacity=".2"/><stop offset="1" stop-color="#fff" stop-opacity="0"/></linearGradient><path d="m21.67285 4.53125-9.5-3.5a.501.501 0 0 0 -.3457 0l-9.5 3.5a.49937.49937 0 0 0 -.32373.52637l1.5 13a.49745.49745 0 0 0 .25146.37793l8 4.5a.49835.49835 0 0 0 .49024 0l8-4.5a.49745.49745 0 0 0 .25146-.37793l1.5-13a.49937.49937 0 0 0 -.32373-.52637z"/><path d="m19.533 17.689-7.533 4.238-7.533-4.238-1.425-12.356 8.958-3.3 8.958 3.3z" fill="#ff1744"/><path d="m11.825 2.098v19.731l.175.098 7.533-4.238 1.425-12.356-8.958-3.3z" opacity=".1"/><path d="m11.53955 4.30566-5.5 13a.49978.49978 0 1 0 .9209.38868l1.56305-3.69434h6.953l1.563 3.69434a.499.499 0 0 0 .4605.30566.50835.50835 0 0 0 .19482-.03906.50045.50045 0 0 0 .26563-.65528l-5.5-13a.52.52 0 0 0 -.9209 0zm3.51386 8.69434h-6.10682l3.05341-7.2168z" fill="#fff"/><path d="m21.67285 4.53125-9.5-3.5a.501.501 0 0 0 -.3457 0l-9.5 3.5a.49937.49937 0 0 0 -.32373.52637l1.5 13a.49745.49745 0 0 0 .25146.37793l8 4.5a.49835.49835 0 0 0 .49024 0l8-4.5a.49745.49745 0 0 0 .25146-.37793l1.5-13a.49937.49937 0 0 0 -.32373-.52637z" fill="url(#a)"/></svg>