<?xml version="1.0" encoding="UTF-8" standalone="no"?>
<!-- Created with Inkscape (http://www.inkscape.org/) -->

<svg
   version="1.1"
   id="svg1635"
   xml:space="preserve"
   width="682.66669"
   height="682.66669"
   viewBox="0 0 682.66669 682.66669"
   svg="http://www.w3.org/2000/svg"
   ><defs
     id="defs1639"><clipPath
       clipPathUnits="userSpaceOnUse"
       id="clipPath1649"><path
         d="M 0,512 H 512 V 0 H 0 Z"
         id="path1647" /></clipPath></defs><g
     id="g1641"
     transform="matrix(1.3333333,0,0,-1.3333333,0,682.66667)"><g
       id="g1643"><g
         id="g1645"
         clip-path="url(#clipPath1649)"><g
           id="g1651"
           transform="translate(506.5693,269.1943)"><path
             d="m 0,0 -76.204,76.218 c -7.255,7.255 -4.992,15.005 5.006,17.254 0,0 8.26,1.866 18.441,12.049 21.85,21.835 21.828,57.296 0.008,79.103 -21.864,21.849 -57.275,21.849 -79.139,0 -10.175,-10.175 -12.028,-18.435 -12.028,-18.435 -2.255,-10.019 -10.026,-12.26 -17.268,-4.991 l -76.203,76.161 c -7.248,7.262 -19.128,7.262 -26.375,0 l -76.197,-76.183 c -7.241,-7.269 -4.999,-15.04 5.006,-17.281 0,0 8.273,-1.867 18.441,-12.021 21.828,-21.842 21.857,-57.282 0.007,-79.145 -21.842,-21.843 -57.303,-21.821 -79.124,0 -10.168,10.196 -12.035,18.455 -12.035,18.455 -2.234,10.012 -10.02,12.254 -17.268,5.006 l -76.196,-76.197 c -7.255,-7.255 -7.255,-19.12 0,-26.361 l 76.19,-76.204 c 7.248,-7.247 5.006,-15.018 -5.006,-17.267 0,0 -8.259,-1.881 -18.442,-12.049 -21.849,-21.863 -21.849,-57.275 0.007,-79.117 21.836,-21.836 57.269,-21.857 79.117,0.007 10.19,10.175 12.035,18.427 12.035,18.427 2.249,10.027 10.02,12.268 17.261,4.985 l 76.204,-76.162 c 7.247,-7.262 19.127,-7.262 26.375,0 l 76.211,76.183 c 7.255,7.255 4.985,15.04 -4.999,17.274 0,0 -8.288,1.867 -18.456,12.021 -21.863,21.864 -21.848,57.275 0,79.139 21.843,21.842 57.269,21.87 79.125,0 10.175,-10.176 12.021,-18.455 12.021,-18.455 2.256,-10.02 10.026,-12.276 17.281,-5.021 L 0,-26.389 C 7.241,-19.12 7.241,-7.255 0,0"
             style="fill:#aded48;fill-opacity:1;fill-rule:nonzero;stroke:none"
             id="path1653" /></g><g
           id="g1655"
           transform="translate(506.5693,269.1943)"><path
             d="m 0,0 -76.204,76.218 c -7.255,7.255 -4.992,15.005 5.006,17.254 0,0 8.26,1.866 18.441,12.049 21.85,21.835 21.828,57.296 0.008,79.103 l -395.63,-395.629 c 21.836,-21.836 57.269,-21.857 79.117,0.007 10.19,10.175 12.035,18.427 12.035,18.427 2.249,10.027 10.02,12.268 17.261,4.985 l 76.204,-76.162 c 7.247,-7.262 19.127,-7.262 26.375,0 l 76.211,76.183 c 7.255,7.255 4.985,15.04 -4.999,17.274 0,0 -8.288,1.867 -18.456,12.021 -21.863,21.864 -21.848,57.275 0,79.139 21.843,21.842 57.269,21.87 79.125,0 10.175,-10.176 12.021,-18.455 12.021,-18.455 2.256,-10.02 10.026,-12.276 17.281,-5.021 L 0,-26.389 C 7.241,-19.12 7.241,-7.255 0,0"
             style="fill:#70d840;fill-opacity:1;fill-rule:nonzero;stroke:none"
             id="path1657" /></g></g></g></g></svg>
