<svg id="svg31911" height="512" viewBox="0 0 16.933333 16.933334" width="512" svg="http://www.w3.org/2000/svg" ><g id="layer1" transform="translate(0 -280.067)"><path id="path17665" d="m5.0322481 291.97289s.030462.18842-.035139.43925-.2268114.59176-.6640433.94154c-.06836.055-.05924.13318-.059428.20671h4.1532361c-.000175-.0735.0095-.15167-.05891-.20671-.43724-.34978-.600041-.69072-.665591-.94154-.0656-.25083-.03566-.43925-.03566-.43925z" fill="#2fa9da" font-variant-ligatures="normal" font-variant-position="normal" font-variant-caps="normal" font-variant-numeric="normal" font-variant-alternates="normal" font-feature-settings="normal" text-indent="0" text-align="start" text-decoration-line="none" text-decoration-style="solid" text-decoration-color="#000000" text-transform="none" text-orientation="mixed" white-space="normal" shape-padding="0" isolation="auto" mix-blend-mode="normal" solid-color="#000000" solid-opacity="1" vector-effect="none"/><path id="path17649" d="m1.3233027 283.24242c-.43515999 0-.79491999.35781-.79491999.79297v7.4082c0 .43516.35976.79297.79491999.79297h10.0546903c.43516 0 .79297-.35781.79297-.79297v-7.4082c0-.43516-.35781-.79297-.79297-.79297z" fill="#33b9ef" font-variant-ligatures="normal" font-variant-position="normal" font-variant-caps="normal" font-variant-numeric="normal" font-variant-alternates="normal" font-feature-settings="normal" text-indent="0" text-align="start" text-decoration-line="none" text-decoration-style="solid" text-decoration-color="#000000" text-transform="none" text-orientation="mixed" white-space="normal" shape-padding="0" isolation="auto" mix-blend-mode="normal" solid-color="#000000" solid-opacity="1" vector-effect="none"/><path id="rect16581" d="m1.3233027 283.77172h10.0546903c.151149 0 .26367.11251.26367.26367v5.55625h-10.5839803v-5.55625c0-.15116.11446-.26367.26562-.26367z" fill="#dbe9ee" font-variant-ligatures="normal" font-variant-position="normal" font-variant-caps="normal" font-variant-numeric="normal" font-variant-alternates="normal" font-feature-settings="normal" text-indent="0" text-align="start" text-decoration-line="none" text-decoration-style="solid" text-decoration-color="#000000" text-transform="none" text-orientation="mixed" white-space="normal" shape-padding="0" isolation="auto" mix-blend-mode="normal" solid-color="#000000" solid-opacity="1" vector-effect="none"/><path id="path16587" d="m6.0850327 291.17992h.5293002c.35286 0 .35286-.5293 0-.5293h-.5420002c-.36556.0169-.34016.54623.0127.5293z" fill="#dbe9ee" font-variant-ligatures="normal" font-variant-position="normal" font-variant-caps="normal" font-variant-numeric="normal" font-variant-alternates="normal" font-feature-settings="normal" text-indent="0" text-align="start" text-decoration-line="none" text-decoration-style="solid" text-decoration-color="#000000" text-transform="none" text-orientation="mixed" white-space="normal" shape-padding="0" isolation="auto" mix-blend-mode="normal" solid-color="#000000" solid-opacity="1" vector-effect="none"/><path id="path16603" d="m3.9678326 293.29516a.26464803.26464803 0 1 0 0 .52929h4.7636703a.26464803.26464803 0 1 0 0-.52929z" fill="#33b9ef" font-variant-ligatures="normal" font-variant-position="normal" font-variant-caps="normal" font-variant-numeric="normal" font-variant-alternates="normal" font-feature-settings="normal" text-indent="0" text-align="start" text-decoration-line="none" text-decoration-style="solid" text-decoration-color="#000000" text-transform="none" text-orientation="mixed" white-space="normal" shape-padding="0" isolation="auto" mix-blend-mode="normal" solid-color="#000000" solid-opacity="1" vector-effect="none"/><path id="path17222" d="m1.8486927 286.94164a.26460982.26460982 0 0 0 -.26172.26953v1.58594a.26465001.26465001 0 1 0 .5293 0v-1.58594a.26460982.26460982 0 0 0 -.26758-.26953z" fill="#c8d4d9" font-variant-ligatures="normal" font-variant-position="normal" font-variant-caps="normal" font-variant-numeric="normal" font-variant-alternates="normal" font-feature-settings="normal" text-indent="0" text-align="start" text-decoration-line="none" text-decoration-style="solid" text-decoration-color="#000000" text-transform="none" text-orientation="mixed" white-space="normal" shape-padding="0" isolation="auto" mix-blend-mode="normal" solid-color="#000000" solid-opacity="1" vector-effect="none"/><path id="path17224" d="m1.8486927 285.35375a.26460982.26460982 0 0 0 -.26172.26953v.5293a.26465001.26465001 0 1 0 .5293 0v-.5293a.26460982.26460982 0 0 0 -.26758-.26953z" fill="#c8d4d9" font-variant-ligatures="normal" font-variant-position="normal" font-variant-caps="normal" font-variant-numeric="normal" font-variant-alternates="normal" font-feature-settings="normal" text-indent="0" text-align="start" text-decoration-line="none" text-decoration-style="solid" text-decoration-color="#000000" text-transform="none" text-orientation="mixed" white-space="normal" shape-padding="0" isolation="auto" mix-blend-mode="normal" solid-color="#000000" solid-opacity="1" vector-effect="none"/><path id="path17698" d="m8.7312479 284.82811c-.435161 0-.794785.36015-.794785.7953v7.40833c0 .43515.359624.79272.794785.79272h4.7619841c.43516 0 .794781-.35756.794781-.79272v-7.40833c0-.43516-.359621-.7953-.794781-.7953z" fill="#ff6b6b" font-variant-ligatures="normal" font-variant-position="normal" font-variant-caps="normal" font-variant-numeric="normal" font-variant-alternates="normal" font-feature-settings="normal" text-indent="0" text-align="start" text-decoration-line="none" text-decoration-style="solid" text-decoration-color="#000000" text-transform="none" text-orientation="mixed" white-space="normal" shape-padding="0" isolation="auto" mix-blend-mode="normal" solid-color="#000000" solid-opacity="1" vector-effect="none"/><path id="path17694" d="m8.4656299 285.88747h5.2932171v5.82084h-5.2932171z" fill="#dbe9ee" font-variant-ligatures="normal" font-variant-position="normal" font-variant-caps="normal" font-variant-numeric="normal" font-variant-alternates="normal" font-feature-settings="normal" text-indent="0" text-align="start" text-decoration-line="none" text-decoration-style="solid" text-decoration-color="#000000" text-transform="none" text-orientation="mixed" white-space="normal" shape-padding="0" isolation="auto" mix-blend-mode="normal" solid-color="#000000" solid-opacity="1" vector-effect="none"/><path id="path17713" d="m13.493232 288.00414c-.435161 0-.793235.35756-.793235.79272v4.23488c0 .43516.358074.79272.793235.79272h2.117182c.43516 0 .792716-.35756.792716-.79272v-4.23488c0-.43516-.357556-.79272-.792716-.79272z" fill="#33658a" font-variant-ligatures="normal" font-variant-position="normal" font-variant-caps="normal" font-variant-numeric="normal" font-variant-alternates="normal" font-feature-settings="normal" text-indent="0" text-align="start" text-decoration-line="none" text-decoration-style="solid" text-decoration-color="#000000" text-transform="none" text-orientation="mixed" white-space="normal" shape-padding="0" isolation="auto" mix-blend-mode="normal" solid-color="#000000" solid-opacity="1" vector-effect="none"/><path id="path17709" d="m13.22968 289.06299h2.644283v3.70262h-2.644283z" fill="#dbe9ee" font-variant-ligatures="normal" font-variant-position="normal" font-variant-caps="normal" font-variant-numeric="normal" font-variant-alternates="normal" font-feature-settings="normal" text-indent="0" text-align="start" text-decoration-line="none" text-decoration-style="solid" text-decoration-color="#000000" text-transform="none" text-orientation="mixed" white-space="normal" shape-padding="0" isolation="auto" mix-blend-mode="normal" solid-color="#000000" solid-opacity="1" vector-effect="none"/><path id="path16601" d="m10.848693 292.23656a.26465.26465 0 1 0 0 .5293h.5293a.26465.26465 0 1 0 0-.5293z" fill="#dbe9ee" font-variant-ligatures="normal" font-variant-position="normal" font-variant-caps="normal" font-variant-numeric="normal" font-variant-alternates="normal" font-feature-settings="normal" text-indent="0" text-align="start" text-decoration-line="none" text-decoration-style="solid" text-decoration-color="#000000" text-transform="none" text-orientation="mixed" white-space="normal" shape-padding="0" isolation="auto" mix-blend-mode="normal" solid-color="#000000" solid-opacity="1" vector-effect="none"/><g fill="#c8d4d9"><path id="path17226" d="m9.2568929 288.52953a.26460982.26460982 0 0 0 -.26171.26758v1.58789a.26464501.26464501 0 1 0 .52929 0v-1.58789a.26460982.26460982 0 0 0 -.26758-.26758z" font-variant-ligatures="normal" font-variant-position="normal" font-variant-caps="normal" font-variant-numeric="normal" font-variant-alternates="normal" font-feature-settings="normal" text-indent="0" text-align="start" text-decoration-line="none" text-decoration-style="solid" text-decoration-color="#000000" text-transform="none" text-orientation="mixed" white-space="normal" shape-padding="0" isolation="auto" mix-blend-mode="normal" solid-color="#000000" solid-opacity="1" vector-effect="none"/><path id="path17228" d="m9.2568929 286.94164a.26460982.26460982 0 0 0 -.26171.26953v.5293a.26464501.26464501 0 1 0 .52929 0v-.5293a.26460982.26460982 0 0 0 -.26758-.26953z" font-variant-ligatures="normal" font-variant-position="normal" font-variant-caps="normal" font-variant-numeric="normal" font-variant-alternates="normal" font-feature-settings="normal" text-indent="0" text-align="start" text-decoration-line="none" text-decoration-style="solid" text-decoration-color="#000000" text-transform="none" text-orientation="mixed" white-space="normal" shape-padding="0" isolation="auto" mix-blend-mode="normal" solid-color="#000000" solid-opacity="1" vector-effect="none"/></g></g></svg>
