<svg clip-rule="evenodd" fill-rule="evenodd" stroke-linejoin="round" stroke-miterlimit="2" viewBox="0 0 32 32" xmlns="http://www.w3.org/2000/svg"><g id="Solid-Blue" fill="#30a2ff"><circle cx="16.016" cy="15.952" r="3"/><path d="m10.538 6.464c-.907-.156-1.76-.232-2.539-.228-2.405.013-4.164.815-4.973 2.216-.809 1.402-.624 3.326.567 5.415.386.677.879 1.378 1.467 2.085-.588.708-1.081 1.408-1.467 2.086-1.191 2.088-1.376 4.013-.567 5.414.809 1.402 2.568 2.204 4.973 2.217.779.004 1.632-.072 2.539-.228.319.863.679 1.64 1.073 2.313 1.213 2.076 2.787 3.198 4.405 3.198 1.619 0 3.193-1.122 4.406-3.198.394-.673.754-1.45 1.073-2.313.907.156 1.76.232 2.539.228 2.405-.013 4.164-.815 4.973-2.217.809-1.401.624-3.326-.567-5.414-.386-.678-.879-1.378-1.467-2.086.588-.707 1.081-1.408 1.467-2.085 1.191-2.089 1.376-4.013.567-5.415-.809-1.401-2.568-2.203-4.973-2.216-.779-.004-1.632.072-2.539.228-.319-.863-.679-1.641-1.073-2.314-1.213-2.075-2.787-3.198-4.406-3.198-1.618 0-3.192 1.123-4.405 3.198-.394.673-.754 1.451-1.073 2.314zm5.478 17.304c-1.205.514-2.385.926-3.511 1.233.251.642.53 1.227.832 1.744.774 1.324 1.647 2.207 2.679 2.207s1.906-.883 2.68-2.207c.302-.517.58-1.102.832-1.744-1.126-.307-2.306-.719-3.512-1.233zm9.592-6.332c-.829.821-1.775 1.637-2.823 2.424-.158 1.301-.391 2.529-.688 3.657.682.104 1.328.155 1.927.152 1.533-.008 2.735-.323 3.251-1.217.516-.893.187-2.092-.572-3.424-.297-.52-.664-1.054-1.095-1.592zm-19.183 0c-.431.538-.798 1.072-1.095 1.592-.759 1.332-1.088 2.531-.572 3.424.516.894 1.718 1.209 3.251 1.217.599.003 1.245-.048 1.927-.152-.297-1.128-.531-2.356-.688-3.657-1.048-.787-1.994-1.603-2.823-2.424zm5.078 3.969c.111.59.24 1.157.385 1.698.541-.145 1.097-.317 1.663-.515-.345-.184-.69-.375-1.035-.573-.344-.199-.682-.402-1.013-.61zm9.027 0c-.331.208-.669.411-1.014.61-.344.198-.689.389-1.034.573.567.198 1.122.37 1.663.515.145-.541.274-1.108.385-1.698zm-4.514-11.083c.827.384 1.664.817 2.5 1.3.837.483 1.631.991 2.376 1.515.082.908.124 1.85.124 2.815 0 .966-.042 1.908-.124 2.815-.745.525-1.539 1.033-2.376 1.515-.836.483-1.673.917-2.5 1.3-.826-.383-1.663-.817-2.5-1.3-.836-.482-1.63-.99-2.375-1.515-.082-.907-.125-1.849-.125-2.815 0-.965.043-1.907.125-2.815.745-.524 1.539-1.032 2.375-1.515.837-.483 1.674-.916 2.5-1.3zm6.98 4.448c.013.39.02.785.02 1.182 0 .398-.007.792-.02 1.182.455-.391.882-.786 1.277-1.182-.395-.396-.822-.791-1.277-1.182zm-13.959 0c-.455.391-.882.786-1.278 1.182.396.396.823.792 1.278 1.182-.014-.39-.021-.784-.021-1.182 0-.397.007-.792.021-1.182zm.899-6.383c-.682-.103-1.328-.154-1.927-.151-1.533.008-2.735.323-3.251 1.216-.516.894-.187 2.092.572 3.424.297.521.664 1.054 1.095 1.593.828-.821 1.775-1.638 2.823-2.424.157-1.301.391-2.529.688-3.658zm15.672 6.082c.431-.539.798-1.072 1.095-1.593.759-1.332 1.088-2.53.572-3.424-.516-.893-1.718-1.208-3.251-1.216-.599-.003-1.245.048-1.927.151.297 1.129.53 2.357.688 3.658 1.048.786 1.994 1.603 2.823 2.424zm-13.72-5.667c-.145.541-.274 1.108-.385 1.697.331-.207.669-.41 1.013-.609.345-.199.69-.39 1.035-.573-.567-.199-1.122-.371-1.663-.515zm8.257 0c-.541.144-1.097.316-1.663.515.345.183.69.374 1.034.573.345.199.683.402 1.014.609-.111-.589-.24-1.157-.385-1.697zm-.617-1.898c-.252-.642-.53-1.227-.832-1.744-.774-1.324-1.648-2.208-2.68-2.208s-1.905.884-2.679 2.208c-.302.517-.581 1.102-.832 1.744 1.126.307 2.306.719 3.511 1.233 1.206-.514 2.386-.926 3.512-1.233z"/></g></svg>