<svg id="Capa_1" enable-background="new 0 0 511.999 511.999" height="512" viewBox="0 0 511.999 511.999" width="512" svg="http://www.w3.org/2000/svg"><g><path d="m404.139 203.764c-2.637-4.79-7.676-7.764-13.14-7.764h-120.131l44.678-177.309c1.802-7.163-1.846-14.561-8.628-17.476-6.738-2.9-14.663-.469-18.604 5.771l-32.314 52.166-147.686 233.835c-2.915 4.629-3.091 10.474-.454 15.249 2.637 4.79 7.676 7.764 13.14 7.764h120.132l-44.678 177.309c-1.802 7.163 1.846 14.561 8.628 17.476 6.773 2.895 14.648.478 18.604-5.771l32.314-51.166 147.686-234.835c2.914-4.629 3.09-10.474.453-15.249z" fill="#fed843"/><path d="m404.139 203.764c-2.637-4.79-7.676-7.764-13.14-7.764h-120.131l44.678-177.309c1.802-7.163-1.846-14.561-8.628-17.476-6.738-2.9-14.663-.469-18.604 5.771l-32.314 52.166v394.695l147.686-234.835c2.914-4.628 3.09-10.473.453-15.248z" fill="#fabe2c"/></g></svg>
