<svg height="512" viewBox="0 0 512 512" width="512" xmlns="http://www.w3.org/2000/svg"><g id="Layer_2" data-name="Layer 2"><g id="Audio_And_Video_File_Format" data-name="Audio And Video File Format"><g id="TS"><g id="File"><path d="m456 127v360a25 25 0 0 1 -25 25h-350a25 25 0 0 1 -25-25v-462a25 25 0 0 1 25-25h248z" fill="#41a5ee"/><rect fill="#07c" height="200" rx="25" width="512" y="240"/><path d="m456 126.96h-126.96v-126.96z" fill="#d8efff"/></g><g id="TS-2" fill="#d8efff" data-name="TS"><path d="m198.46 408.77v-115.09h-20.74v-22.62h71.91v22.62h-20.57v115.09z"/><path d="m298.24 410.81q-12.92 0-21.59-4.59a29.46 29.46 0 0 1 -13.09-14.22q-4.41-9.6-4.93-24.91l26-3.91a61.91 61.91 0 0 0 1.62 14.28q1.44 5.44 4.08 7.83a9.19 9.19 0 0 0 6.37 2.38q4.77 0 6.21-3.24a16.5 16.5 0 0 0 1.44-6.8 24.53 24.53 0 0 0 -4.08-14.36 63.42 63.42 0 0 0 -11-11.81l-11.9-10.38a66.18 66.18 0 0 1 -13.17-15q-5.36-8.42-5.36-20.83 0-17.5 10.37-26.77t28.22-9.27q11.06 0 17.77 3.75a26.12 26.12 0 0 1 10.2 9.77 40.43 40.43 0 0 1 4.76 12.75 80.63 80.63 0 0 1 1.44 12.83l-26.18 3.23a102.64 102.64 0 0 0 -.76-10.62 14.61 14.61 0 0 0 -2.47-7q-1.86-2.46-5.78-2.46a6.56 6.56 0 0 0 -6.2 3.56 14.69 14.69 0 0 0 -2 7.15q0 7.63 3.66 12.49a70.53 70.53 0 0 0 9.6 10.11l11.39 10a77.49 77.49 0 0 1 15.22 17.34q6.19 9.69 6.2 24a35.41 35.41 0 0 1 -4.42 17.6 32.34 32.34 0 0 1 -12.49 12.5 38.2 38.2 0 0 1 -19.13 4.6z"/></g></g></g></g></svg>